<svg width="62" height="62" viewBox="0 0 62 62" fill="none" xmlns="http://www.w3.org/2000/svg">
<path d="M19.1545 22.3049V27.7236L25.2033 24.3211C27.3875 24.8252 29.4458 25.0772 31.378 25.0772C35.2426 25.0772 39.0861 24.3422 42.9085 22.872C46.731 21.4017 49.6294 19.9106 51.6037 18.3984C53.578 16.8862 54.565 15.8361 54.565 15.248C54.565 14.828 53.8089 14.0089 52.2967 12.7907C50.7846 11.5725 48.5373 10.2493 45.5549 8.82114C42.5725 7.393 39.4851 6.42683 36.2927 5.92276L24.5732 0V6.42683C19.5325 7.85497 14.9119 10.1233 10.7114 13.2317L1.13415 6.42683C0.798061 6.1748 0.52511 6.11179 0.315041 6.2378C0.104972 6.36382 0 6.59481 0 6.93089C0.252033 7.35091 0.546028 7.87602 0.882114 8.5061C1.2182 9.13618 1.63821 10.2073 2.14228 11.7195C2.64634 13.2317 2.89837 14.4708 2.89837 15.437C2.89837 16.4032 2.66739 17.5793 2.20528 18.9654C1.74318 20.3516 1.26016 21.4647 0.756098 22.3049L0 23.6911C0 24.0271 0.126016 24.2581 0.378049 24.3841C0.630081 24.5102 0.882114 24.4472 1.13415 24.1951L10.7114 17.3902C11.0475 17.6423 13.8618 19.2805 19.1545 22.3049ZM42.2785 12.2866C42.8245 11.7406 43.4756 11.4675 44.2317 11.4675C44.9878 11.4675 45.6389 11.7406 46.185 12.2866C46.731 12.8326 47.0041 13.4837 47.0041 14.2398C47.0041 14.9959 46.731 15.6471 46.185 16.1931C45.6389 16.7391 44.9878 17.0122 44.2317 17.0122C43.4756 17.0122 42.8245 16.7391 42.2785 16.1931C41.7324 15.6471 41.4594 14.9959 41.4594 14.2398C41.4594 13.4837 41.7324 12.8326 42.2785 12.2866Z" fill="#010002"/>
<path d="M52.3598 11.7825C52.8219 10.3963 53.3049 9.24115 53.8089 8.31707L54.565 6.93089C54.565 6.51088 54.4601 6.2378 54.25 6.11179C54.039 5.98577 53.766 6.04878 53.4309 6.30081L43.8537 13.1057C39.6532 9.99725 35.0745 7.77104 30.1179 6.42683V0L18.3984 5.92276C15.206 6.42683 12.0976 7.37195 9.07317 8.75813C6.04878 10.1443 3.78049 11.4464 2.26829 12.6646C0.756098 13.8828 0 14.7439 0 15.248C0 15.8361 0.987085 16.8651 2.96138 18.3354C4.93568 19.8056 7.83405 21.2757 11.6565 22.7459C15.479 24.2162 19.3645 24.9512 23.313 24.9512C25.2452 24.9512 27.2615 24.6992 29.3618 24.1951L35.5366 27.7236V22.1789C40.7452 19.2385 43.5176 17.6003 43.8537 17.2642L53.4309 24.1951C53.6829 24.3631 53.935 24.3841 54.187 24.2581C54.439 24.1321 54.565 23.9011 54.565 23.565C52.6328 20.2886 51.6667 17.5582 51.6667 15.374C51.6667 14.3659 51.8977 13.1687 52.3598 11.7825ZM14.1768 14.3028C13.6308 14.8489 12.9797 15.122 12.2236 15.122C11.4675 15.122 10.8164 14.8489 10.2703 14.3028C9.7243 13.7568 9.45122 13.1057 9.45122 12.3496C9.45122 11.5935 9.7243 10.9424 10.2703 10.3963C10.8164 9.85031 11.4675 9.57724 12.2236 9.57724C12.9797 9.57724 13.6308 9.85031 14.1768 10.3963C14.7229 10.9424 14.9959 11.5935 14.9959 12.3496C14.9959 13.1057 14.7229 13.7568 14.1768 14.3028Z" transform="translate(7.43494 34.2764)" fill="#010002"/>
</svg>
