<svg width="38" height="35" viewBox="0 0 38 35" fill="none" xmlns="http://www.w3.org/2000/svg">
<path d="M35.1467 6.97325C33.332 4.06357 30.7612 1.6951 27.7122 0.123943L27.4717 0H10.5283L10.2878 0.123943C7.23878 1.6951 4.66799 4.06357 2.85334 6.97325C0.986664 9.96639 0 13.4203 0 16.9615C0 20.5028 0.986664 23.9567 2.85334 26.9498C4.66799 29.8595 7.23878 32.228 10.2878 33.7991L10.5283 33.9231H27.4716L27.7121 33.7991C30.7611 32.228 33.3319 29.8595 35.1466 26.9498C37.0133 23.9567 38 20.5028 38 16.9615C38 13.4203 37.0133 9.96639 35.1467 6.97325ZM11.0743 2.21988H26.9257C29.5151 3.60665 31.7 5.65086 33.2557 8.14542C33.2941 8.20691 33.3316 8.26892 33.3691 8.33085C32.875 8.18604 32.417 8.02429 31.9475 7.85854C30.3131 7.28159 28.6231 6.68496 25.2878 6.68496C21.9525 6.68496 20.2625 7.28159 18.6282 7.85854C17.1041 8.39656 15.6644 8.90484 12.7117 8.90484C9.7591 8.90484 8.31948 8.39664 6.79547 7.85854C6.31075 7.68738 5.81667 7.51327 5.27228 7.35314C6.7787 5.21739 8.76501 3.45666 11.0743 2.21988ZM33.2557 25.7777C31.7 28.2723 29.5151 30.3164 26.9257 31.7033H11.0743C8.48491 30.3165 6.29998 28.2723 4.74429 25.7777C3.09715 23.1367 2.22656 20.0881 2.22656 16.9615C2.22656 14.2915 2.86202 11.6787 4.0732 9.32758C4.79023 9.50562 5.40802 9.72361 6.05224 9.95107C7.68654 10.528 9.37643 11.1247 12.7117 11.1247C16.047 11.1247 17.737 10.528 19.3713 9.95107C20.8954 9.41305 22.3351 8.90477 25.2878 8.90477C28.2405 8.90477 29.6802 9.41297 31.2043 9.95107C32.197 10.3015 33.2196 10.6622 34.6321 10.8901C35.3832 12.8133 35.7734 14.8698 35.7734 16.9615C35.7734 20.0881 34.9029 23.1367 33.2557 25.7777Z" transform="translate(0 0.661545)" fill="black"/>
<path d="M22.4023 4.93495C22.2927 4.73353 19.6486 0 13.5056 0C9.85484 0 7.43991 1.6718 6.05833 3.07062C5.22478 1.62947 3.6644 0.656641 1.87929 0.656641H0V10.2712H1.87929C3.6644 10.2712 5.22478 9.29835 6.05833 7.8572C7.43998 9.25603 9.85491 10.9278 13.5056 10.9278C19.6486 10.9278 22.2927 6.19429 22.4023 5.9928L22.6898 5.46387L22.4023 4.93495ZM4.46136 5.72138C4.34276 6.91316 3.40976 7.86978 2.22649 8.02828V2.89961C3.40976 3.05811 4.34269 4.01473 4.46136 5.20651L4.32139 5.46395L4.46136 5.72138ZM14.2968 8.67353C14.0371 8.69595 13.7736 8.70808 13.5056 8.70808C11.5061 8.70801 9.73839 8.08289 8.25164 6.85004C7.64178 6.34435 7.20234 5.832 6.92505 5.46395C7.20234 5.09589 7.64178 4.58354 8.25164 4.07785C9.73839 2.845 11.5061 2.21996 13.5056 2.21996C13.7737 2.21996 14.0371 2.23209 14.2968 2.25451C13.8423 3.25398 13.6053 4.34009 13.6053 5.46402C13.6053 6.58795 13.8423 7.67406 14.2968 8.67353ZM18.7596 6.85004C18.0747 7.41789 17.3296 7.85513 16.5303 8.16347C16.0721 7.34197 15.8318 6.42227 15.8318 5.46395C15.8318 4.50562 16.0721 3.58585 16.5303 2.76442C17.3296 3.07269 18.0748 3.50993 18.7596 4.07785C19.3698 4.58384 19.8094 5.09648 20.0863 5.46387C19.809 5.83193 19.3695 6.34435 18.7596 6.85004Z" transform="translate(8.38855 15.8619)" fill="black"/>
</svg>
