<svg width="37" height="25" viewBox="0 0 37 25" fill="none" xmlns="http://www.w3.org/2000/svg">
<path d="M34.4976 0H2.44283C1.07246 0 0 0.574638 0 1.3089C0 2.04316 1.07246 2.6178 2.44283 2.6178H34.5572C35.9275 2.6178 37 2.04316 37 1.3089C36.9404 0.574638 35.868 0 34.4976 0Z" transform="translate(37 0.661545) scale(-1 1)" fill="black"/>
<path d="M34.4976 0H2.44283C1.07246 0 0 0.605476 0 1.37914C0 2.15281 1.07246 2.75828 2.44283 2.75828H34.5572C35.9275 2.75828 37 2.15281 37 1.37914C36.9404 0.605476 35.868 0 34.4976 0Z" transform="translate(37 22.134) scale(-1 1)" fill="black"/>
<path d="M26.1093 0H1.84884C0.811687 0 0 0.590708 0 1.3455C0 2.1003 0.811687 2.69101 1.84884 2.69101H26.1544C27.1915 2.69101 28.0032 2.1003 28.0032 1.3455C27.9581 0.590708 27.1464 0 26.1093 0Z" transform="translate(37 11.3978) scale(-1 1)" fill="black"/>
</svg>
