<svg width="58" height="44" viewBox="0 0 58 44" fill="none" xmlns="http://www.w3.org/2000/svg">
<path d="M57.8469 22.6268C53.0162 13.8801 45.0748 8.53164 35.7668 7.5405C31.1002 1.57876 16.4572 0.0684503 15.8252 0.0062319C15.4135 -0.0367366 14.9992 0.144648 14.7467 0.483698C14.4929 0.820341 14.4304 1.26664 14.5815 1.66172C16.0171 5.43103 17.4879 9.71837 17.8771 11.4724C15.2181 12.7031 12.8938 14.0119 11.3955 15.1025C8.14564 9.84361 1.51163 9.77795 1.20838 9.77795C0.540468 9.77795 0 10.3246 0 11.0002C0 18.0816 2.44032 21.6361 4.07225 23.2224C2.44032 24.8086 0 28.363 0 35.4445C0 36.12 0.540468 36.6667 1.20838 36.6667C1.51163 36.6667 8.14575 36.6011 11.3955 31.3422C13.3862 32.7912 16.8281 34.6235 20.5893 36.1467C19.7582 37.5065 19.3335 39.6692 19.3335 42.7777C19.3335 43.4533 19.8739 44 20.5418 44C20.9012 44 29.1182 43.9279 33.2104 39.0726C43.6176 38.8692 52.5791 33.356 57.8469 23.8179C58.051 23.4479 58.051 22.9968 57.8469 22.6268ZM17.548 2.68345C21.6082 3.27791 28.2738 4.74044 32.0406 7.35831C28.5674 7.49558 24.1358 8.82382 20.1185 10.4905C19.5836 8.34212 18.3967 4.98565 17.548 2.68345ZM21.7784 41.4851C21.9394 38.0854 22.7149 37.2165 22.9323 37.0386C25.287 37.8746 27.6727 38.539 29.839 38.8724C27.2178 40.7379 23.6445 41.3185 21.7784 41.4851ZM22.7921 36.9937L22.7925 36.9904C22.7958 36.9916 22.7992 36.9925 22.8024 36.9937C22.7956 36.9928 22.7993 36.9948 22.7921 36.9937ZM32.6252 36.6667C25.564 36.6667 14.0186 30.8027 11.8804 28.5898C11.6515 28.3523 11.3388 28.2222 11.0167 28.2222C10.9435 28.2222 10.8692 28.2294 10.796 28.2425C10.4006 28.3165 10.0667 28.5862 9.9074 28.9598C8.2766 32.7851 4.44155 33.8295 2.44847 34.1148C2.82604 26.4557 6.40982 24.4088 6.59391 24.3097C6.99153 24.1032 7.23701 23.6866 7.2429 23.2343C7.24879 22.7771 6.99504 22.3511 6.59504 22.1363C6.43339 22.0492 2.82842 20.0165 2.44847 12.337C4.44031 12.6319 8.28951 13.6917 9.9074 17.4849C10.0667 17.8584 10.4006 18.1283 10.796 18.2022C11.1948 18.2773 11.5996 18.146 11.8804 17.8549C14.0186 15.6419 25.564 9.77795 32.6252 9.77795C42.1656 9.77795 50.4293 14.668 55.3996 23.2223C50.4293 31.7767 42.1656 36.6667 32.6252 36.6667Z" fill="#D9D9D9"/>
<path d="M2.41664 10.9981C2.41664 5.37408 4.61034 1.92938 4.63277 1.89478C4.99856 1.33137 4.84518 0.574671 4.29055 0.202277C3.73592 -0.16771 2.98781 -0.0161179 2.61964 0.542472C2.51225 0.704836 0 4.59102 0 10.9981C0 17.4053 2.51225 21.2914 2.61964 21.4538C2.8521 21.8071 3.23567 21.9981 3.62615 21.9981C3.85623 21.9981 4.08868 21.9313 4.29519 21.7927C4.85096 21.4179 5.00082 20.6601 4.63028 20.0978C4.60796 20.0646 2.41664 16.6736 2.41664 10.9981Z" transform="translate(33.8335 12.2242)" fill="#D9D9D9"/>
<path d="M4.29055 0.202277C3.73479 -0.167711 2.98894 -0.0161167 2.61964 0.542474C2.51225 0.704723 0 4.59102 0 10.998C0 14.42 0.729194 17.1091 1.34171 18.7621C1.52341 19.2527 1.98368 19.5559 2.4734 19.5559C2.61387 19.5559 2.75773 19.5308 2.89707 19.4783C3.5225 19.2419 3.83878 18.5378 3.60508 17.9052C3.06348 16.4407 2.41676 14.0535 2.41676 10.998C2.41676 5.37396 4.61046 1.92927 4.63289 1.89466C4.99856 1.33137 4.84518 0.57467 4.29055 0.202277Z" transform="translate(29.0001 12.2242)" fill="#D9D9D9"/>
<path d="M2.41664 4.88878C3.75132 4.88878 4.83328 3.79439 4.83328 2.44439C4.83328 1.09439 3.75132 0 2.41664 0C1.08197 0 0 1.09439 0 2.44439C0 3.79439 1.08197 4.88878 2.41664 4.88878Z" transform="translate(41.0835 17.1111)" fill="#D9D9D9"/>
</svg>
