<svg width="66" height="66" viewBox="0 0 66 66" fill="none" xmlns="http://www.w3.org/2000/svg">
<path d="M1.48973 5.43751L8.38949 2.81697C10.5439 1.9991 12.9226 1.9991 15.077 2.81697L18.2414 4.01875C20.8984 5.02986 23.8336 5.02986 26.4907 4.01875L29.6562 2.81697C31.8104 1.99858 34.1893 1.99858 36.3437 2.81697L39.5092 4.01875C42.1663 5.02986 45.1015 5.02986 47.7585 4.01875L50.9229 2.81697C53.0773 1.9991 55.456 1.9991 57.6104 2.81697L64.5101 5.43751C65.0784 5.65282 65.7134 5.36613 65.9285 4.79699C66.1435 4.22786 65.8572 3.59199 65.2889 3.37655L58.3903 0.757176C55.7329 -0.252392 52.7985 -0.252392 50.141 0.757176L46.9766 1.95895C44.8224 2.77734 42.4435 2.77734 40.2892 1.95895L37.1236 0.757176C34.4662 -0.252392 31.5318 -0.252392 28.8743 0.757176L25.7088 1.95895C23.5545 2.77734 21.1757 2.77734 19.0213 1.95895L15.8569 0.757176C13.2001 -0.251746 10.2666 -0.251746 7.60981 0.757176L0.711069 3.37655C0.142769 3.59186 -0.143507 4.22786 0.0714901 4.79699C0.286488 5.36613 0.921555 5.65295 1.48973 5.43751Z" transform="translate(0 55.0759)" fill="#D9D9D9"/>
<path d="M64.8947 3.31701C63.4464 3.25854 62.0277 2.88845 60.7348 2.23206C60.2949 2.0294 59.8692 1.7915 59.4424 1.55346C58.733 1.13265 57.989 0.773407 57.2185 0.479482L57.1525 0.45418C57.0229 0.404611 56.8903 0.363305 56.7553 0.330776L56.6673 0.30651C56.607 0.285469 56.5452 0.268946 56.4825 0.256941C54.3302 -0.249069 52.069 0.0138765 50.0898 1.00047L46.9077 2.54264C44.853 3.56989 42.4356 3.56989 40.3809 2.54264L37.2153 1.00047C34.5552 -0.333489 31.4228 -0.333489 28.7625 1.00047L25.5804 2.54264C23.5257 3.56989 21.1083 3.56989 19.0536 2.54264L15.8815 1.00047C13.8979 0.0351754 11.6456 -0.225834 9.4943 0.260297C8.46739 0.551382 7.48547 0.982909 6.57624 1.54249C6.14393 1.78259 5.71174 2.02385 5.25635 2.2287C3.96418 2.88406 2.54697 3.25505 1.09986 3.31701C0.49238 3.31701 0 3.81012 0 4.41849C0 5.02686 0.49238 5.51996 1.09986 5.51996C2.8647 5.46123 4.59602 5.02209 6.17589 4.23235C6.67639 4.00438 7.15924 3.73666 7.64311 3.46791C8.38181 3.01173 9.17722 2.65507 10.009 2.4071C11.6689 2.03598 13.4055 2.24032 14.9343 2.98656L18.1021 4.52872C20.7623 5.85881 23.8923 5.85881 26.5527 4.52872L29.7347 2.98656C31.7888 1.95659 34.2075 1.95659 36.2616 2.98656L39.4282 4.52872C42.0888 5.8592 45.2193 5.8592 47.8799 4.52872L51.0641 2.98656C52.608 2.22031 54.3721 2.02294 56.0467 2.42917L56.3866 2.52392C57.0793 2.78015 57.7464 3.10054 58.3795 3.48108C58.8547 3.74544 59.3309 4.00981 59.8215 4.23557C61.3998 5.02583 63.1305 5.46394 64.8943 5.51996C65.5018 5.51996 65.9942 5.02686 65.9942 4.41849C65.9942 3.81012 65.5022 3.31701 64.8947 3.31701Z" transform="translate(0.000335693 60.4734)" fill="#D9D9D9"/>
<path d="M0.608913 4.29122C0.869926 4.42198 1.17219 4.44341 1.44905 4.35086C1.72592 4.25831 1.95471 4.05939 2.08502 3.79773L3.18489 1.59465C3.45647 1.05017 3.2358 0.38836 2.69212 0.11638C2.14844 -0.155601 1.48759 0.0653914 1.21601 0.609869L0.116146 2.81295C-0.0144248 3.07435 -0.0358202 3.37705 0.0565978 3.65432C0.149145 3.93159 0.347771 4.16072 0.608913 4.29122Z" transform="translate(26.3976 8.81726)" fill="#D9D9D9"/>
<path d="M2.1572 29.7414H5.62525C6.92529 34.2091 9.15157 37.7967 11.9498 39.8478C10.3841 43.6112 9.32945 47.5678 8.81387 51.612C8.73962 52.1215 9.0277 52.6146 9.50758 52.7993C9.98746 52.984 10.5311 52.8112 10.8168 52.3831C10.8355 52.3545 12.746 49.5687 17.6011 49.5687C22.389 49.5687 24.3104 52.2751 24.3853 52.3831C24.671 52.8113 25.2146 52.9841 25.6945 52.7993C26.1744 52.6146 26.4625 52.1215 26.3882 51.612C25.8808 47.5755 24.818 43.6289 23.2304 39.8842C26.0495 37.7989 28.2768 34.2091 29.5768 29.7414H33.0449C33.7961 29.7419 34.4921 29.3458 34.8763 28.6993C35.2855 28.0283 35.311 27.1909 34.9434 26.4962L30.7011 18.3681C30.0411 8.80481 25.7833 1.44997 20.065 0.0322424C19.6148 -0.0791573 19.1432 0.104013 18.8859 0.490491L17.6012 2.42366L16.3165 0.490491C16.0592 0.104142 15.5876 -0.0791573 15.1373 0.0322424C9.40898 1.45217 5.15569 8.80584 4.50232 18.3659L0.258824 26.4995C-0.108786 27.1943 -0.083393 28.0316 0.325979 28.7026C0.71086 29.3479 1.40664 29.7425 2.1572 29.7414ZM6.55356 19.1921L6.56129 19.1712C6.57006 19.1525 6.57444 19.1326 6.58217 19.1139C6.62458 19.0142 6.65191 18.9087 6.66351 18.8011C6.66351 18.7834 6.67562 18.768 6.67665 18.7493C7.17715 10.6091 10.5264 4.05619 14.9413 2.39616L16.6858 5.01773C16.9015 5.30662 17.2407 5.47676 17.6009 5.47676C17.9612 5.47676 18.3003 5.30662 18.5161 5.01773L20.2605 2.39719C24.1498 3.86114 27.2152 9.14404 28.2294 15.9359C26.1904 16.5239 24.1023 16.925 21.9907 17.1344C18.4072 17.5663 14.775 17.3364 11.2744 16.4558C10.8951 16.3407 10.4834 16.4387 10.1967 16.7125C9.90986 16.9863 9.79218 17.3933 9.8886 17.7782C9.98514 18.1632 10.2808 18.4662 10.6627 18.5718C13.1472 19.2398 15.7118 19.5609 18.2839 19.5258C19.5599 19.5258 20.8776 19.4597 22.2118 19.3253C24.3308 19.1145 26.4281 18.7243 28.4812 18.1588C28.4944 18.3372 28.5154 18.5123 28.5264 18.693C28.5282 18.8668 28.5707 19.0378 28.6506 19.1921L33.0502 27.5383H26.4001C25.7926 27.5383 25.3002 28.0314 25.3002 28.6398C25.3002 29.2481 25.7926 29.7412 26.4001 29.7412H27.2801C26.3804 33.0113 24.5101 35.9307 21.9169 38.1127C21.1097 38.7255 20.83 39.8141 21.2416 40.741C22.3579 43.3742 23.1827 46.122 23.701 48.9352C21.8492 47.8634 19.7393 47.3204 17.6009 47.3655C15.4625 47.3202 13.3525 47.863 11.5008 48.9352C12.0178 46.1211 12.843 43.3728 13.9613 40.7399C14.3704 39.8117 14.088 38.7238 13.2793 38.1127C10.6881 35.9299 8.8198 33.0107 7.92165 29.7412H8.80162C9.40911 29.7412 9.90149 29.2481 9.90149 28.6398C9.90149 28.0314 9.40911 27.5383 8.80162 27.5383L2.20875 27.5196L6.55356 19.1921Z" transform="translate(15.3968)" fill="#D9D9D9"/>
<path d="M0.912453 7.72127C1.30674 7.78956 1.70696 7.63801 1.95754 7.32563C2.18517 7.05713 2.4436 6.81652 2.72743 6.60857C4.39546 5.27319 5.69898 3.53701 6.51656 1.56138C6.63876 1.29533 6.65023 0.991468 6.54827 0.716906C6.44632 0.442344 6.23944 0.219932 5.97327 0.0984633C5.7071 -0.0224886 5.40394 -0.0324277 5.13042 0.0709687C4.85704 0.174236 4.63585 0.382319 4.51585 0.649266C3.85526 2.27857 2.79626 3.71528 1.43615 4.82734C1.01003 5.13778 0.622309 5.49793 0.281252 5.90015C0.0140518 6.19847 -0.0703736 6.61851 0.0608419 6.99698C0.192057 7.37572 0.518162 7.65299 0.912453 7.72127Z" transform="translate(32.9794 29.7409)" fill="#D9D9D9"/>
</svg>
